<svg width="18" height="18" viewBox="0 0 18 18" fill="none" xmlns="http://www.w3.org/2000/svg">
<g id="Linear / Like / Heart ">
<path id="Vector" d="M6.7213 14.1831L7.18561 13.5941L6.7213 14.1831ZM9 4.12541L8.45963 4.64551C8.60102 4.79241 8.79612 4.87541 9 4.87541C9.20388 4.87541 9.39898 4.79241 9.54037 4.64551L9 4.12541ZM11.2787 14.1831L11.743 14.7721L11.2787 14.1831ZM7.18561 13.5941C6.03774 12.6892 4.81553 11.8293 3.84391 10.7353C2.898 9.67014 2.25 8.4423 2.25 6.85276H0.75C0.75 8.91043 1.60928 10.478 2.72234 11.7313C3.80969 12.9557 5.19812 13.9374 6.25699 14.7721L7.18561 13.5941ZM2.25 6.85276C2.25 5.30976 3.12161 4.02553 4.29622 3.48861C5.42355 2.97331 6.96414 3.09175 8.45963 4.64551L9.54037 3.60531C7.66098 1.6527 5.45157 1.31122 3.67262 2.12438C1.94095 2.91593 0.75 4.74856 0.75 6.85276H2.25ZM6.25699 14.7721C6.63944 15.0736 7.06194 15.4049 7.49302 15.6568C7.92386 15.9085 8.4346 16.1249 9 16.1249V14.6249C8.8154 14.6249 8.57614 14.5524 8.24981 14.3617C7.92371 14.1711 7.58186 13.9065 7.18561 13.5941L6.25699 14.7721ZM11.743 14.7721C12.8019 13.9374 14.1903 12.9557 15.2777 11.7313C16.3907 10.478 17.25 8.91043 17.25 6.85276H15.75C15.75 8.4423 15.102 9.67014 14.1561 10.7353C13.1845 11.8293 11.9623 12.6892 10.8144 13.5941L11.743 14.7721ZM17.25 6.85276C17.25 4.74856 16.059 2.91593 14.3274 2.12438C12.5484 1.31122 10.339 1.6527 8.45963 3.60531L9.54037 4.64551C11.0359 3.09175 12.5765 2.97331 13.7038 3.48861C14.8784 4.02553 15.75 5.30976 15.75 6.85276H17.25ZM10.8144 13.5941C10.4181 13.9065 10.0763 14.1711 9.75019 14.3617C9.42386 14.5524 9.1846 14.6249 9 14.6249V16.1249C9.5654 16.1249 10.0761 15.9085 10.507 15.6568C10.9381 15.4049 11.3606 15.0736 11.743 14.7721L10.8144 13.5941Z" fill="white" fill-opacity="0.8"/>
</g>
</svg>
