<svg width="16" height="16" viewBox="0 0 16 16" fill="none" xmlns="http://www.w3.org/2000/svg">
<g id="material-symbols:thumb-up-rounded">
<path id="Vector" d="M14.0026 5.33289C14.3582 5.33289 14.6693 5.46623 14.9359 5.73289C15.2026 5.99956 15.3359 6.31067 15.3359 6.66623V7.99956C15.3359 8.07734 15.3275 8.16067 15.3106 8.24956C15.2937 8.33845 15.2688 8.42178 15.2359 8.49956L13.2359 13.1996C13.1359 13.4218 12.9693 13.6107 12.7359 13.7662C12.5026 13.9218 12.2582 13.9996 12.0026 13.9996H6.66927C6.3026 13.9996 5.98883 13.8691 5.72794 13.6082C5.46705 13.3473 5.33638 13.0333 5.33594 12.6662V5.88289C5.33594 5.70511 5.37216 5.53578 5.4446 5.37489C5.51705 5.214 5.61416 5.07223 5.73594 4.94956L9.3526 1.34956C9.51927 1.194 9.7166 1.09956 9.9446 1.06623C10.1726 1.03289 10.3919 1.07178 10.6026 1.18289C10.8137 1.294 10.9666 1.44956 11.0613 1.64956C11.1559 1.84956 11.1753 2.05511 11.1193 2.26623L10.3693 5.33289H14.0026ZM2.66927 13.9996C2.3026 13.9996 1.98883 13.8691 1.72794 13.6082C1.46705 13.3473 1.33638 13.0333 1.33594 12.6662V6.66623C1.33594 6.29956 1.4666 5.98578 1.72794 5.72489C1.98927 5.464 2.30305 5.33334 2.66927 5.33289C3.03594 5.33289 3.34994 5.46356 3.61127 5.72489C3.8726 5.98623 4.00305 6.3 4.0026 6.66623V12.6662C4.0026 13.0329 3.87216 13.3469 3.61127 13.6082C3.35038 13.8696 3.03638 14 2.66927 13.9996Z" fill="white" fill-opacity="0.87"/>
</g>
</svg>
