<svg width="16" height="17" viewBox="0 0 16 17" fill="none" xmlns="http://www.w3.org/2000/svg">
<g id="Linear / Messages, Conversation / Plain">
<path id="Vector" d="M12.4235 10.9467L13.5678 7.51379C14.5674 4.51486 15.0672 3.0154 14.2757 2.22389C13.4842 1.43238 11.9847 1.9322 8.98581 2.93184L5.55292 4.07613C3.1325 4.88294 1.92229 5.28634 1.57838 5.87791C1.25122 6.44067 1.25122 7.13571 1.57838 7.69847C1.92229 8.29004 3.1325 8.69344 5.55292 9.50025C5.94156 9.6298 6.13587 9.69457 6.2983 9.8033C6.4557 9.90868 6.59092 10.0439 6.6963 10.2013C6.80503 10.3637 6.8698 10.558 6.99935 10.9467C7.80615 13.3671 8.20955 14.5773 8.80112 14.9212C9.36388 15.2484 10.0589 15.2484 10.6217 14.9212C11.2132 14.5773 11.6167 13.3671 12.4235 10.9467Z" stroke="#A8A7A7" stroke-width="1.5"/>
<path id="Vector_2" d="M10.9835 6.5769C11.278 6.28563 11.2806 5.81077 10.9894 5.51625C10.6981 5.22174 10.2233 5.21911 9.92874 5.51038L10.9835 6.5769ZM7.28422 10.2354L10.9835 6.5769L9.92874 5.51038L6.22945 9.16889L7.28422 10.2354Z" fill="#A8A7A7"/>
</g>
</svg>
